<svg width="151" height="129" viewBox="0 0 151 129" fill="none" xmlns="http://www.w3.org/2000/svg">
<rect width="136.384" height="26.5621" transform="matrix(0.731326 -0.679787 0.687285 0.728502 19.4688 100.121)" fill="white"/>
<ellipse rx="57.5332" ry="57.4932" transform="matrix(0.884077 -0.467348 0.473651 0.880716 76.8768 63.2423)" fill="white"/>
<path d="M139.003 25.9141C138.972 25.9955 138.938 26.0696 138.91 26.1399C138.421 25.9429 137.936 25.7349 137.448 25.5379C137.471 25.4603 137.484 25.3794 137.507 25.3018C137.719 25.227 137.935 25.1595 138.209 25.0612C137.239 24.1429 136.64 22.9078 135.2 22.7303C135.269 22.6663 135.318 22.6028 135.354 22.5469C135.392 22.48 135.424 22.4169 135.437 22.3543C135.536 21.9488 135.046 21.6968 134.803 21.4352C130.643 16.981 126.454 12.5421 122.273 8.09936C120.03 5.71678 117.773 3.34188 115.492 0.923573C115.176 1.20249 114.909 1.43621 114.654 1.67332C111.107 4.97023 107.571 8.27053 104.019 11.5602C103.682 11.869 103.422 12.2198 102.775 11.902C99.4877 10.2669 96.1872 8.69438 92.5475 7.91443C90.1657 7.40803 87.8297 6.69162 85.4575 6.13368C84.3252 5.86806 83.1558 5.72428 81.9976 5.5839C81.661 5.54812 81.2971 5.72191 81.191 5.75015C80.8066 5.59092 80.5658 5.42087 80.3297 5.41562C77.6945 5.34054 75.0606 5.18112 72.4367 5.24869C67.8195 5.37581 63.2939 6.14206 58.8603 7.4265C58.553 7.51461 58.2984 7.77003 57.9612 7.97615C57.7798 7.95125 57.4479 7.82007 57.2031 7.903C55.3697 8.53771 53.5518 9.20137 51.7461 9.90504C51.5018 10.0063 51.3536 10.3727 51.3289 10.4136C50.6076 10.5998 50.0011 10.6695 49.4768 10.9095C45.3265 12.8248 41.4859 15.2639 37.9408 18.1136C27.4717 26.5378 20.5069 37.2259 17.2589 50.2607C16.1613 54.6414 15.6006 59.1007 15.5691 63.624C16.0962 63.6148 16.5719 63.6142 17.0549 63.6098C17.086 63.6677 17.1098 63.7294 17.141 63.7873C16.6789 64.1431 16.213 64.4916 15.7509 64.8473C15.6004 64.7411 15.5579 64.8007 15.5633 64.8629C15.6109 72.4666 17.0707 79.7976 19.946 86.8449C20.7692 88.8443 20.8167 88.8285 19.2169 90.2968C18.6164 90.8465 17.851 91.2976 17.9602 92.2991C17.9685 92.3319 17.8702 92.3746 17.7907 92.4352C17.6794 92.2803 17.5793 92.1288 17.4413 91.9416C16.5968 92.7318 15.7669 93.5143 14.9292 94.2824C14.1777 94.9677 13.5549 95.7709 12.7087 96.3669C12.0219 96.86 11.507 97.5689 10.8469 98.0944C10.1907 98.6272 9.64116 99.15 9.82288 99.9739C10.4006 100.059 10.9263 100.134 11.4968 100.223C11.4004 100.599 11.3334 100.839 11.29 101.001C12.0293 101.456 12.7491 101.874 13.4101 100.986C13.2523 100.884 13.0756 100.763 12.76 100.558C13.2488 100.235 13.6397 99.9725 14.0558 99.6875C14.3087 100.158 14.5664 100.533 14.7256 100.95C14.8371 101.244 14.9273 101.829 14.8401 101.875C13.9 102.279 14.7337 102.684 14.8787 102.988C15.0631 103.383 15.437 103.696 15.8184 104.145C15.262 104.291 14.8592 104.392 14.3429 104.526C15.88 105.943 15.7384 108.387 18.0812 109.342C17.8929 108.94 17.7733 108.752 17.7157 108.541C17.6626 108.355 17.6048 108.005 17.6702 107.97C18.1102 107.747 18.6778 107.345 19.017 107.472C19.3974 107.624 20.076 108.018 19.6995 108.793C19.5502 109.123 19.5727 109.529 19.5069 109.945C19.8658 109.988 20.1544 110.021 20.4764 110.064C20.4216 110.344 20.359 110.61 20.3528 110.65C20.8849 111.084 21.2773 111.397 21.6735 111.717C21.8957 111.488 22.0951 111.234 22.3362 111.023C23.0379 110.401 23.049 110.405 23.7805 111.105C22.6661 112.921 22.3196 113.058 21.6249 111.957C21.4107 112.339 21.2004 112.729 20.9934 113.108C21.0609 113.147 21.1245 113.178 21.1919 113.217L21.6643 112.967C21.7408 114.376 22.3782 115.145 23.8399 115.19C23.6961 115.322 23.545 115.458 23.3939 115.593C23.4284 115.64 23.4668 115.694 23.4941 115.745L24.4098 115.261C24.8516 115.891 23.6105 117.263 25.0573 117.176C25.448 117.695 25.7236 118.051 25.9879 118.403C26.2764 118.037 26.5648 117.671 26.8745 117.275C27.818 117.78 26.6441 118.131 26.6637 118.567C27.2526 119.315 27.8013 120.074 28.4256 120.767C28.7224 121.093 29.1848 121.276 29.5393 121.553C29.6713 121.66 29.725 121.864 29.8034 122.027C29.9678 122.367 30.0567 122.776 30.3001 123.037C31.7419 124.607 33.234 126.132 34.6758 127.702C35.1285 128.197 35.3889 128.143 35.8561 127.71C39.3341 124.441 42.8728 121.232 46.3318 117.945C47.0756 117.245 47.5991 117.107 48.5716 117.597C59.25 122.926 70.54 124.949 82.3924 123.627C92.3515 122.515 101.426 119.047 109.653 113.379C113.473 110.746 116.905 107.686 120.017 104.257C120.221 104.029 120.288 103.668 120.41 103.39C120.721 103.17 121.129 103.01 121.349 102.707C123.157 100.237 125.096 97.837 126.682 95.2329C132.939 84.9469 135.633 73.7287 135.068 61.7251C134.729 54.5353 133.101 47.6372 130.186 41.0379C129.958 40.5267 130.028 40.2392 130.434 39.8665C132.415 38.0663 134.37 36.2339 136.336 34.4048C138.143 32.7152 139.955 31.0329 141.795 29.3168C140.825 28.1384 139.909 27.0245 139.003 25.9141V25.9141ZM18.5625 104.943C18.6425 105.561 18.6672 106.179 18.7293 107.076C18.0239 106.91 17.5563 106.804 17.2667 106.734C17.4973 106.017 17.6449 105.493 17.8337 104.994C17.9023 104.809 18.0679 104.666 18.185 104.502C18.3147 104.656 18.536 104.79 18.5625 104.943V104.943ZM23.2631 53.1637C22.6974 53.8995 21.9495 53.7931 21.1789 53.8009C21.679 52.7002 21.8875 52.6365 23.2631 53.1637ZM26.3355 56.4643C26.4013 56.0486 26.3192 55.6181 26.3066 55.0393C26.4177 54.7948 26.7007 54.3664 26.8057 53.902C29.5148 42.0349 35.719 32.3622 45.478 25.0474C54.3919 18.3653 64.5425 15.1458 75.7411 15.2286C82.196 15.2729 88.396 16.6136 94.3684 19.0409C94.6707 19.1691 94.9663 19.3195 95.3957 19.5107C94.8355 20.0484 94.4051 20.7406 93.8026 20.9568C93.2293 21.1577 92.4728 20.8792 91.6852 20.8031C91.3673 21.5659 91.0681 22.4674 90.6267 23.2954C90.2806 23.9709 89.8496 24.6447 89.304 25.1748C87.6278 26.8136 85.8758 28.3808 83.9279 30.1911C84.7435 26.2754 85.501 22.6506 86.2821 18.9483C85.4322 18.7564 84.6715 18.5917 83.8183 18.4109C83.3552 20.5699 82.8979 22.6701 82.4518 24.7736C81.9503 27.1387 81.4153 29.4937 80.9808 31.8792C80.8009 32.8291 80.4273 33.5749 79.662 34.1652C79.0232 34.6609 78.4568 35.2391 77.8564 35.7888C77.7583 35.7106 77.6641 35.6396 77.566 35.5613C77.7544 29.6635 77.9428 23.7656 78.1387 17.743C77.3152 17.7044 76.5213 17.6687 75.6019 17.6252C75.4122 23.6074 75.2137 29.5385 75.0123 35.4989C74.1434 35.5494 73.3593 35.6015 72.4608 35.649C71.6096 29.7618 70.7588 23.8929 69.902 17.9436C69.09 18.0477 68.3181 18.1397 67.3921 18.2576C68.2361 24.1486 69.083 30.0103 69.9325 35.9635C69.0972 36.1634 68.3207 36.3509 67.4637 36.5624C66.4897 33.6578 65.4954 30.8197 64.5999 27.9571C63.7328 25.1819 62.6097 22.4862 61.8708 19.5502C61.0411 19.8123 60.2806 20.047 59.4251 20.3134C60.3973 23.284 61.3568 26.1963 62.3407 29.1886C63.219 28.9473 63.5732 29.3455 63.5716 30.2105C63.5711 31.1121 63.5963 32.0094 63.6768 32.9053C63.7198 33.3844 63.8045 33.9064 64.0408 34.3112C64.5869 35.2397 64.5251 36.3224 65.0548 37.3247C64.2601 37.6519 63.5458 37.9552 62.8387 38.2546C62.2376 37.4666 61.6443 36.6931 61.0437 35.9234C60.522 35.9948 59.9965 36.0589 59.4748 36.1302C58.9396 36.2459 58.7805 36.488 59.1014 37.0153C59.5696 37.7992 59.9724 38.6176 60.4355 39.4786C59.9506 39.8093 59.5122 40.0875 59.0966 40.3908C58.6844 40.6831 58.2911 40.9932 58.0238 41.1902C57.815 40.7152 57.6789 40.2018 57.3945 39.7946C56.891 39.0665 56.228 38.4413 55.7647 37.7012C55.333 37.0374 54.8667 36.8472 54.1275 37.0521C53.5968 37.1933 53.0372 37.2289 52.2882 37.3461C53.658 39.1123 54.9511 40.7703 56.2063 42.3926C55.9403 43.1651 54.7073 43.2501 55.1419 44.5442C54.4346 44.0447 53.872 43.7102 53.3845 43.2897C51.6829 41.7918 49.9813 40.294 48.3373 38.7471C47.773 38.2184 47.2436 38.0151 46.4933 38.2166C45.8675 38.3894 45.2085 38.4311 44.331 38.5698C47.1948 41.1351 49.9109 43.5648 52.6955 46.0698C52.2019 46.7489 51.7258 47.3908 51.1892 48.1112C48.5544 46.4749 45.9541 44.8853 43.3712 43.2587C40.9237 41.7277 38.4516 40.2376 35.8455 38.7068C35.4537 39.3321 35.0334 39.991 34.5497 40.7578C39.6655 43.9353 44.7137 47.0742 49.8406 50.2551C49.4704 50.9898 49.1035 51.7134 48.6911 52.5261C43.1298 50.2903 37.5835 48.0651 31.9703 45.8196C31.6423 46.6156 31.3452 47.3301 31.0138 48.1372C36.6125 50.3904 42.1555 52.6266 47.7056 54.859C47.448 55.6642 47.2106 56.403 46.9254 57.2786C45.2635 56.9306 43.5312 56.5733 41.8062 56.2121C39.8698 55.8048 37.9541 55.3494 36.008 54.9936C35.3667 54.8773 34.6885 55.0221 34.0247 55.02C33.5931 55.0158 33.1527 54.9606 32.7289 54.7107C32.9936 54.6822 33.2656 54.65 33.5304 54.6215C33.54 54.57 33.5496 54.5184 33.5592 54.4669C32.1975 54.1739 30.8286 53.8847 29.3816 53.5718C29.2387 54.2606 29.115 54.8463 28.9754 55.5241C29.5715 55.6085 30.1826 55.9638 30.4296 55.1735C30.8306 55.3983 31.2426 55.6265 31.7634 55.918C31.7821 56.0568 31.8194 56.3344 31.8694 56.6704C36.7184 57.7031 41.5746 58.7319 46.4794 59.7816C46.378 60.6343 46.2861 61.4355 46.1813 62.2994C40.1902 62.0934 34.2505 61.8789 28.1929 61.671C28.1535 62.5002 28.117 63.3001 28.0791 64.1843C34.111 64.3965 40.0803 64.614 46.2378 64.8341C46.0623 65.1499 45.9724 65.3647 45.8374 65.5476C45.7237 65.7006 45.5537 65.8184 45.4288 65.968C44.2261 67.3937 42.6931 67.9624 40.8255 68.1692C36.715 68.6138 32.6325 69.2666 28.419 69.8493C28.5376 70.6601 28.6446 71.4491 28.7658 72.3514C32.5236 71.8237 36.2083 71.3162 40.2051 70.7644C39.0305 71.8778 38.0534 72.8032 37.0797 73.7175C37.0041 73.7853 36.9169 73.8314 36.8525 73.9026C35.0532 75.8852 32.9909 77.4308 29.998 77.7492C31.1332 79.565 30.0891 80.4701 28.5849 81.4046C27.9767 79.1801 27.3118 77.0413 26.8229 74.8652C25.464 68.7632 25.3431 62.62 26.3355 56.4643V56.4643ZM104.498 38.4311C106.581 40.6563 108.679 42.8738 110.762 45.099C110.986 45.3245 111.185 45.5725 111.444 45.8631C110.898 46.3748 110.405 46.8303 109.823 47.3795C105.072 42.3276 100.366 37.326 95.5801 32.2456C96.1403 31.7079 96.6434 31.2375 97.2612 30.6507C98.0715 31.5326 98.8026 32.354 99.5517 33.1567C100.761 34.4503 101.963 35.7478 103.204 37.0149C103.466 37.2761 103.885 37.3795 104.196 37.5405C103.698 37.8129 104.213 38.1265 104.498 38.4311V38.4311ZM104.486 52.3106C103.939 52.8224 103.426 53.3077 102.851 53.8531C98.0919 48.805 93.3859 43.8034 88.558 38.6617C89.9265 37.4923 91.2034 36.3433 92.5527 35.277C93.2923 34.6909 94.1749 34.7353 94.9632 35.2292C96.9 36.4355 98.4383 38.0289 99.4832 40.0412C99.7366 40.5298 99.7027 41.161 99.7717 41.5148C100.628 41.9264 101.567 42.1638 102.222 42.7379C103.843 44.1571 105.33 45.7408 106.873 47.2571C107.344 47.7148 107.814 48.1725 108.356 48.7126C107.846 49.1869 107.339 49.6683 106.71 50.2517C105.385 48.8986 104.113 47.5919 102.841 46.2852C102.154 45.5799 101.488 44.8448 100.769 44.1843C99.9284 43.4205 99.5051 43.4491 98.6223 44.1853C98.3269 44.4344 98.0281 44.6945 97.6538 45.0225C99.931 47.4519 102.182 49.8489 104.486 52.3106ZM98.1531 58.2042C97.5817 58.7385 97.0932 59.2012 96.5039 59.7543C91.7484 54.6952 87.0273 49.6829 82.2528 44.6059C83.3205 43.6234 84.2888 42.6469 85.3378 41.7858C86.5954 40.7399 87.7631 40.6895 89.1388 41.6162C91.3224 43.073 93.0794 44.969 94.3788 47.2462C95.2317 48.7281 95.0106 49.9136 93.7871 51.1272C93.4177 51.499 93.0405 51.8564 92.6028 52.2922C94.4429 54.2558 96.2713 56.1977 98.1531 58.2042ZM55.1606 98.122C54.611 98.6448 54.1007 99.119 53.5259 99.6644C48.7592 94.6019 44.0532 89.6002 39.2559 84.4982C40.5042 83.3829 41.6179 82.3296 42.7961 81.3444C43.8048 80.4952 44.8734 80.3299 45.8562 81.1855C47.3456 82.4796 48.7072 83.9528 49.9816 85.472C50.3897 85.9532 50.3581 86.7969 50.4836 87.3253C51.2799 87.7127 52.242 87.9568 52.8854 88.5458C54.9931 90.4516 56.9899 92.481 59.0676 94.5048C58.4817 95.0468 57.982 95.5061 57.3743 96.0597C55.802 94.4377 54.2865 92.8694 52.7638 91.3049C52.4218 90.9467 52.0944 90.5808 51.7311 90.2525C50.6175 89.2058 50.2228 89.2008 49.0557 90.1894C48.8358 90.3707 48.6354 90.5881 48.3589 90.8551C50.61 93.2704 52.8416 95.6496 55.1606 98.122V98.122ZM46.1292 78.1699C47.4947 76.8906 48.8422 75.63 50.2905 74.279C50.7427 74.7554 51.1832 75.2102 51.704 75.7619C50.8344 76.5747 50.0548 77.312 49.1924 78.121C50.8192 79.8442 52.4159 81.5462 54.0388 83.2622C54.8659 82.5091 55.6101 81.8276 56.4153 81.086C56.871 81.5513 57.2998 81.9843 57.8162 82.5105C57.0299 83.27 56.276 84.003 55.4684 84.7923C57.1904 86.6232 58.8595 88.4077 60.6005 90.2564C61.4711 89.4802 62.2981 88.7271 63.1828 87.9249C63.6579 88.4264 64.0834 88.8705 64.5701 89.3937C63.165 90.7034 61.8175 91.964 60.3726 93.3039C55.6326 88.2737 50.9266 83.272 46.1292 78.1699V78.1699ZM51.5165 73.157C52.5803 72.1672 53.5273 71.2206 54.5506 70.3637C55.6712 69.4275 56.9977 69.2559 58.1983 70.1173C59.4401 71.0033 60.6119 72.0192 61.6645 73.1261C64.0704 75.6733 66.4585 78.2392 68.7133 80.922C70.1937 82.6855 69.9395 84.3995 68.2796 85.9646C67.4749 86.7245 66.6546 87.4555 65.7559 88.2837C61.0082 83.239 56.306 78.2446 51.5165 73.157V73.157ZM78.6364 70.3891C78.8954 70.6797 79.1224 71.015 79.3343 71.3397C80.5972 73.2367 80.4268 74.6555 78.7631 76.2133C77.9293 76.9886 77.0955 77.7639 76.1756 78.6219C71.4278 73.5773 66.7407 68.5935 61.9016 63.4484C63.1326 62.3703 64.2675 61.2871 65.502 60.3372C66.3506 59.6934 67.3651 59.7054 68.2883 60.2766C70.098 61.42 71.531 62.939 72.5174 64.8428C72.7392 65.2552 72.7464 65.7718 72.8685 66.3112C75.5548 66.4987 77.0071 68.5743 78.6364 70.3891V70.3891ZM68.6613 57.2733C69.189 56.762 69.6955 56.2805 70.2915 55.7053C74.5642 60.2484 78.8024 64.7447 83.1359 69.3486C84.0133 68.5503 84.8297 67.8121 85.6461 67.0739C85.7169 67.1014 85.7945 67.1069 85.8363 67.1499C86.7515 67.9607 86.7743 68.7726 85.9047 69.5854C84.9271 70.4925 83.9495 71.3995 82.8857 72.3893C78.1379 67.3447 73.4358 62.3502 68.6613 57.2733V57.2733ZM73.5807 52.6749C74.9714 51.3729 76.33 50.1157 77.7531 48.7873C78.2398 49.3106 78.6542 49.7513 79.1332 50.26C78.2965 51.0647 77.5102 51.8242 76.659 52.6365C78.2668 54.3419 79.8329 56.0043 81.4714 57.7492C82.2699 57.0298 83.0325 56.3478 83.8886 55.5793C84.3749 56.0843 84.8082 56.5428 85.2944 57.0477C84.4751 57.8153 83.7241 58.519 82.9155 59.2717C84.6453 61.117 86.3144 62.9015 88.0592 64.7575C88.9226 63.9851 89.739 63.2469 90.6309 62.4409C91.0904 62.9135 91.531 63.3682 92.0362 63.891C90.6019 65.216 89.2544 66.4765 87.8241 67.8088C83.0612 62.7535 78.3591 57.7591 73.5807 52.6749V52.6749ZM48.7814 62.8298C49.4794 49.0801 61.333 37.9541 75.4136 38.1023C66.4931 46.3861 57.7092 54.5421 48.7814 62.8298ZM55.9811 65.2309C55.9606 66.3382 55.9367 67.4566 55.9161 68.5639C55.8201 68.5589 55.7168 68.5578 55.6174 68.5639C55.6263 67.4348 55.6463 66.3092 55.6551 65.1802C55.7662 65.1958 55.87 65.2153 55.9811 65.2309ZM58.4828 66.7239C59.0251 66.2049 59.5277 65.7162 60.113 65.1559C64.8608 70.2005 69.5668 75.2022 74.3675 80.2932C73.7889 80.8314 73.2965 81.2869 72.7072 81.84C67.9594 76.7953 63.2573 71.8009 58.4828 66.7239V66.7239ZM101.933 66.3437C101.298 80.5059 88.669 91.4566 75.3478 91.037C84.2286 82.7835 93.0199 74.6237 101.933 66.3437ZM20.0409 64.7539C20.4061 64.756 20.7782 64.8752 21.1527 64.9467C21.1137 65.1345 21.0747 65.3224 21.0469 65.5137C20.6249 65.458 20.203 65.4023 19.7849 65.3538C19.8675 65.1429 19.9561 64.7523 20.0409 64.7539ZM29.3033 116.827C29.7571 116.179 30.2015 115.721 31.048 116.184C30.7513 117.177 30.1077 117.108 29.3033 116.827ZM36.2776 115.668C31.522 110.609 26.8199 105.614 22.0415 100.53C22.6308 99.9771 23.1126 99.5366 23.6912 98.9984C28.439 104.043 33.1639 109.063 37.9345 114.132C37.3559 114.67 36.8635 115.126 36.2776 115.668ZM44.2036 108.347C40.0614 105.955 35.9565 103.581 31.8405 101.204C31.8343 101.245 31.8281 101.285 31.8179 101.318C34.9112 104.571 38.0005 107.816 41.1467 111.115C40.6369 111.607 40.1914 112.029 39.6351 112.574C34.8762 107.526 30.1512 102.506 25.4413 97.4971C26.157 96.6294 26.9532 96.4439 27.8301 96.9405C31.4913 99.01 35.1485 101.072 38.8953 103.041C35.8454 99.8861 32.8027 96.7277 29.6615 93.4728C30.1791 92.9947 30.6352 92.5585 31.1601 92.0766C35.9117 97.1285 40.5988 102.112 45.3505 107.164C44.9777 107.547 44.6228 107.911 44.2036 108.347ZM49.754 103.498C48.7764 104.405 47.5742 104.929 46.3413 104.234C45.0711 103.521 43.8298 102.653 42.8161 101.618C40.2038 98.948 37.6672 96.2098 35.2133 93.3999C33.5139 91.4549 33.6047 89.4369 35.1934 87.9652C36.3652 86.8812 37.7662 86.6052 39.0649 87.5447C40.6383 88.6829 42.0488 90.0559 43.6362 91.4282C42.9898 92.0487 42.5085 92.5075 41.9232 93.0679C41.1824 92.2979 40.4863 91.5416 39.7398 90.8304C39.1944 90.3196 38.6301 89.791 37.9821 89.4366C37.6676 89.2683 37.0276 89.3279 36.7496 89.5399C36.461 89.7668 36.2311 90.3808 36.3398 90.7043C36.5805 91.3948 36.9613 92.0856 37.4558 92.6233C40.0994 95.4909 42.8006 98.3094 45.4906 101.125C45.8214 101.479 46.2052 101.88 46.6403 102.013C47.1425 102.165 47.8336 102.218 48.2401 101.985C48.8529 101.614 48.7804 100.872 48.3814 100.321C47.7487 99.457 47.0432 98.6312 46.3417 97.8127C45.903 97.2919 45.4027 96.813 44.8669 96.2507C45.4383 95.7163 45.9162 95.2686 46.4842 94.7453C48.1032 96.454 49.8717 97.9723 50.6876 100.236C51.1635 101.554 50.6992 102.618 49.754 103.498ZM124.176 74.0151C124.534 74.0211 124.903 74.0304 125.272 74.0397C125.3 74.127 125.332 74.2215 125.364 74.316C124.948 74.5827 124.542 74.8528 124.126 75.1195C124.058 75.0625 123.983 75.0094 123.911 74.9635C123.629 76.4693 123.458 78.0091 123.031 79.4708C122.637 80.8035 121.927 82.0339 121.421 83.3326C120.888 84.7199 120.262 86.0546 119.569 87.3689C119.418 87.6437 119.454 88.024 119.411 88.3073C119.159 88.5333 118.836 88.7134 118.674 88.9849C116.041 93.5826 112.835 97.7581 108.794 101.195C93.035 114.553 75.4179 117.427 56.055 110.008C55.8463 109.932 55.6512 109.812 55.3707 109.673C56.3818 108.515 57.2653 107.277 58.8356 108.566C58.9509 108.467 58.9872 108.448 58.994 108.426C59.7768 104.918 62.5532 102.93 64.9641 100.661C65.5102 100.15 66.0642 99.6522 66.7905 98.9895C65.9772 102.858 65.2057 106.508 64.4218 110.24C65.2566 110.421 66.0173 110.586 66.8967 110.781C67.3891 108.486 67.868 106.235 68.343 103.976C68.8113 101.74 69.3091 99.5072 69.7327 97.2576C69.9024 96.3409 70.2805 95.6207 71.0016 95.0351C71.6365 94.5322 72.2364 93.9642 72.8446 93.4289C72.9422 93.4888 73.0398 93.5488 73.1334 93.6015C72.9495 99.5249 72.7616 105.441 72.5802 111.456C73.4294 111.49 74.2048 111.526 75.102 111.563C75.2995 105.595 75.498 99.6644 75.691 93.6711C76.5493 93.6355 77.3557 93.5902 78.133 93.5603C78.3386 94.1857 78.5243 94.7566 78.7499 95.4364C78.7387 95.6932 78.6293 96.132 78.6886 96.5374C79.3469 101.198 80.0269 105.847 80.7036 110.507C80.7355 110.722 80.7897 110.945 80.8576 111.262C81.6619 111.143 82.426 111.037 83.3112 110.912C82.4623 104.978 81.6154 99.1159 80.767 93.1993C81.6279 92.9951 82.4229 92.8071 83.2581 92.6072C85.1366 98.3045 86.9825 103.889 88.8688 109.601C89.6516 109.373 90.3903 109.149 91.2826 108.882C89.4152 103.188 87.5644 97.56 85.6893 91.8517C86.5203 91.5052 87.2637 91.1866 88.0546 90.8522L96.5176 106.589L98.7197 105.425L90.2567 89.688C91.0172 89.1931 91.6911 88.7625 92.4264 88.2901C96.1471 93.0043 99.8177 97.6427 103.546 102.371C104.232 101.842 104.863 101.35 105.535 100.828C101.799 96.0845 98.1313 91.435 94.4257 86.7315C95.0581 86.137 95.6401 85.5878 96.2831 84.9784C100.758 88.9778 105.203 92.9377 109.696 96.955C110.283 96.3103 110.809 95.7441 111.403 95.0956C106.928 91.0961 102.487 87.1252 97.9933 83.1079C98.5053 82.4284 98.9998 81.786 99.5258 81.0805C104.623 84.2402 109.704 87.3892 114.824 90.5557C115.283 89.8298 115.692 89.1675 116.161 88.4267C111.035 85.2458 105.971 82.0963 100.882 78.9328C101.27 78.1793 101.619 77.4928 102.032 76.6801C107.596 78.9048 113.139 81.1228 118.741 83.3649C119.058 82.5839 119.344 81.8659 119.682 81.0367C114.099 78.7941 108.586 76.5791 103.091 74.3637C103.397 73.5427 103.681 72.7881 103.993 71.9449C109.566 73.1249 115.39 74.3574 121.318 75.6093C121.498 74.7987 121.668 74.0212 121.861 73.1479C115.974 71.9023 110.149 70.6698 104.247 69.4135C104.338 68.594 104.423 67.7967 104.53 66.8851C110.514 67.0949 116.468 67.3017 122.537 67.5131C122.564 66.6621 122.591 65.8955 122.625 65.0041C116.589 64.7846 110.601 64.5676 104.625 64.354C104.57 64.2527 104.53 64.1437 104.49 64.0348C105.656 63.1121 106.331 61.5747 108.054 61.3238C112.37 60.7056 116.697 60.1091 121.021 59.5054C121.403 59.4521 121.792 59.395 122.277 59.3245C122.169 58.4989 122.067 57.7354 121.949 56.8403C118.195 57.3569 114.477 57.8726 110.469 58.421C112.029 56.983 113.456 55.8011 114.713 54.4584C116.063 53.0292 117.573 52.0175 119.532 51.6693C119.874 51.6097 120.204 51.4257 120.675 51.242C119.449 49.4833 120.814 48.7244 122.03 47.7749C125.167 56.3845 125.792 65.1139 124.176 74.0151V74.0151ZM119.754 38.1621C119.184 37.5713 118.645 37.02 118.12 36.4611C117.216 35.5082 116.326 34.5477 115.429 33.591C114.334 32.4229 114.338 32.4301 113.085 33.3988C114.222 34.8701 115.478 36.2689 116.459 37.8319C117.791 39.9618 116.778 42.3834 114.391 42.874C113.655 43.0312 112.717 42.8671 112.04 42.5281C111.094 42.0527 110.193 41.3673 109.452 40.5974C106.538 37.5568 103.674 34.4527 100.828 31.3481C99.9079 30.348 100.053 28.0136 101.016 26.8723C102.198 25.4948 103.819 25.0375 105.223 26.0332C106.84 27.1666 108.256 28.5834 109.843 29.9558C109.171 30.5988 108.683 31.0615 108.126 31.5882C107.435 30.8757 106.826 30.2125 106.178 29.5796C105.636 29.0577 105.079 28.5435 104.48 28.089C103.975 27.7055 103.389 27.5695 102.864 28.0697C102.333 28.5738 102.313 29.1973 102.694 29.7671C103.172 30.4994 103.694 31.227 104.291 31.8685C106.569 34.3162 108.865 36.7451 111.182 39.1625C111.676 39.6819 112.211 40.226 112.847 40.522C113.288 40.7348 114.033 40.7497 114.443 40.5051C115.06 40.1419 114.994 39.3959 114.566 38.8602C113.595 37.6268 112.559 36.4463 111.54 35.247C111.422 35.0959 111.303 34.9449 111.067 34.6611C112.064 33.8085 112.982 33.0165 114.016 32.1264C111.275 29.1989 108.427 26.1604 105.496 23.0359C106.883 21.745 108.231 20.4845 109.661 19.1522C110.133 19.6648 110.57 20.1306 111.049 20.6394C110.198 21.4517 109.426 22.1852 108.567 23.0014C110.164 24.7034 111.723 26.3696 113.376 28.1252C114.182 27.4019 114.945 26.72 115.797 25.9625C116.249 26.439 116.687 26.9048 117.177 27.4169C116.369 28.1879 115.647 28.8762 114.831 29.651C116.534 31.464 118.2 33.2413 119.96 35.1262C120.827 34.3428 121.665 33.593 122.554 32.7981C123.002 33.2673 123.427 33.7114 123.94 34.2486C122.557 35.5467 121.209 36.8073 119.754 38.1621V38.1621ZM128.792 27.6325C129.338 28.803 128.945 29.9303 127.767 31.0365C126.638 32.0792 125.312 32.4084 124.074 31.6506C122.937 30.9599 121.948 30.0238 120.925 29.1618C120.509 28.8054 120.168 28.3446 119.781 27.9546C119.36 27.536 119.476 27.0934 120.015 26.8274C120.357 26.6651 120.636 26.3688 120.925 26.1419C121.429 26.4887 121.94 26.8318 122.564 27.2637C122.564 27.2454 122.518 27.5764 122.662 27.7414C122.792 27.8776 123.157 27.8797 123.384 27.8338C123.593 27.7884 123.763 27.5314 123.968 27.4971C124.214 27.4508 124.486 27.5577 124.749 27.5953C124.619 27.8037 124.536 28.1539 124.354 28.2133C123.495 28.5091 123.626 28.8394 124.25 29.2531C124.412 29.3627 124.563 29.4873 124.732 29.5932C125.344 29.9851 125.917 29.9234 126.419 29.3981C126.931 28.8579 126.885 28.2873 126.482 27.7107C125 25.6138 123.187 24.1003 120.423 24.0467C119.283 24.0268 118.124 23.8681 117.011 23.6021C114.538 23.0136 113.004 21.3064 112.071 19.0679C111.494 17.7002 111.952 16.5383 113.268 15.4617C114.45 14.4837 115.686 14.2667 116.891 15.1352C118.238 16.0956 119.429 17.2687 120.778 18.4233C120.12 19.0404 119.635 19.492 119.1 19.9888C118.469 19.3372 117.911 18.7497 117.327 18.1849C116.974 17.8416 116.614 17.5022 116.212 17.2225C115.715 16.8718 115.181 16.6246 114.601 17.1261C114 17.6392 113.97 18.2959 114.345 18.8879C115.16 20.1948 116.164 21.2991 117.868 21.4299C118.988 21.5162 120.097 21.6358 121.204 21.7847C124.865 22.2746 127.285 24.3963 128.792 27.6325V27.6325ZM131.117 25.1863C131.151 25.0938 131.207 24.9898 131.293 24.8888C131.332 24.8402 131.379 24.7878 131.425 24.7353C131.471 24.6829 131.525 24.6266 131.59 24.5737C131.615 24.5511 131.648 24.5247 131.673 24.502C131.856 24.34 132.073 24.1698 132.316 24.0136C132.37 23.9756 132.424 23.9377 132.482 23.9069C132.536 23.869 132.595 23.8382 132.649 23.8003C132.707 23.7695 132.765 23.7388 132.823 23.7081C133.037 23.5856 133.244 23.4669 133.463 23.37C133.572 23.3123 133.681 23.2547 133.798 23.2115C133.878 23.1693 133.961 23.1343 134.038 23.1031C134.191 23.0407 134.344 22.9783 134.491 22.9381C134.556 22.9035 134.633 22.8907 134.706 22.8706C134.772 22.8543 134.838 22.838 134.904 22.8218C134.963 22.8093 135.021 22.7969 135.077 22.7956C133.764 23.6008 132.437 24.3955 131.121 25.1935L131.117 25.1863ZM139.487 30.0071C139.251 29.1003 138.974 29.8693 138.712 29.9893L136.825 26.4803C136.649 26.4992 136.365 26.5281 135.759 26.5978C136.088 26.2197 136.339 25.8361 136.402 25.8675C137.127 26.1907 137.834 26.551 138.516 26.9522C139.038 27.262 139.51 27.6536 139.969 27.987C139.84 28.5288 139.672 29.2403 139.487 30.0071V30.0071Z" fill="#2F61AE"/>
<path d="M23.6837 111.16C22.5693 112.976 22.2227 113.113 21.5279 112.012C21.5404 111.931 21.5641 111.853 21.5765 111.772C21.7988 111.543 21.9982 111.289 22.2393 111.078C22.9411 110.456 22.9522 110.459 23.6837 111.16V111.16Z" fill="white"/>
<path d="M79.3195 71.3414C79.1077 71.017 78.8809 70.6819 78.6221 70.3915C76.9941 68.578 75.5429 66.5039 72.8588 66.3165C72.7368 65.7775 72.7224 65.2651 72.508 64.8492C71.5223 62.9468 70.0905 61.4288 68.2823 60.2862C67.3598 59.7154 66.3461 59.7035 65.4982 60.3467C64.2646 61.296 63.1306 62.3784 61.9006 63.4558C66.7359 68.5972 71.4192 73.5774 76.1632 78.6185C77.0825 77.7611 77.9156 76.9863 78.7487 76.2116C80.4111 74.6549 80.5813 73.2371 79.3195 71.3414V71.3414ZM65.0037 63.4681C66.5452 61.8082 67.0569 61.7884 68.5139 63.2837C69.155 63.9383 69.771 64.6155 70.3327 65.3306C71.2076 66.4373 71.1505 66.7647 70.1073 67.6691C69.9345 67.8161 69.7768 67.9737 69.5112 68.2256C68.0037 66.6362 66.5262 65.0681 65.0037 63.4681ZM76.9722 75.1452C76.8357 75.273 76.692 75.4047 76.4511 75.6157C74.5902 73.6467 72.7404 71.6811 70.9096 69.7334C72.2707 67.946 72.9382 67.8345 74.4868 69.3093C75.4787 70.252 76.3956 71.2808 77.2584 72.3475C78.2741 73.6119 78.1837 74.0682 76.9722 75.1452V75.1452Z" fill="white"/>
<path d="M121.01 26.0947C121.513 26.4413 122.016 26.788 122.647 27.2157C122.64 27.2013 122.601 27.5281 122.746 27.6931C122.875 27.8291 123.232 27.835 123.467 27.7854C123.675 27.74 123.841 27.4759 124.051 27.4489C124.3 27.4098 124.568 27.5095 124.831 27.5471C124.704 27.7626 124.618 28.1052 124.435 28.1646C123.578 28.4602 123.716 28.7864 124.332 29.2035C124.493 29.3131 124.652 29.4338 124.813 29.5434C125.425 29.935 125.991 29.8773 126.499 29.3485C127.011 28.8087 126.972 28.2347 126.562 27.6624C125.081 25.5671 123.27 24.0547 120.512 24.0084C119.373 23.9885 118.212 23.8227 117.103 23.5641C114.632 22.976 113.099 21.2702 112.163 19.0261C111.591 17.6667 112.044 16.4984 113.359 15.4226C114.544 14.4526 115.78 14.2357 116.979 15.0964C118.325 16.0561 119.515 17.2283 120.86 18.3931C120.203 19.0097 119.718 19.461 119.19 19.9536C118.553 19.3062 117.991 18.712 117.415 18.1437C117.062 17.8008 116.703 17.4616 116.301 17.1821C115.805 16.8316 115.263 16.5884 114.692 17.0858C114.087 17.6095 114.065 18.262 114.432 18.8573C115.246 20.1632 116.253 21.2556 117.959 21.3935C119.071 21.4836 120.187 21.5993 121.293 21.7481C124.951 22.2376 127.368 24.3577 128.874 27.5914C129.419 28.761 129.027 29.8875 127.846 30.9857C126.722 32.0348 125.393 32.3565 124.156 31.5992C123.02 30.9091 122.04 29.9698 121.017 29.1085C120.594 28.7562 120.261 28.2919 119.867 27.906C119.45 27.495 119.562 27.0455 120.104 26.7869C120.446 26.6248 120.721 26.3215 121.01 26.0947V26.0947Z" fill="white"/>
<path d="M74.3431 80.3021C73.7724 80.8359 73.2733 81.2948 72.6881 81.8363C67.9461 76.7965 63.2496 71.8069 58.4809 66.7349C59.0225 66.2164 59.5245 65.7282 60.1092 65.1684C64.8512 70.2082 69.5515 75.205 74.3465 80.291L74.3431 80.3021Z" fill="white"/>
<path d="M54.6886 23.4239C56.7664 27.2896 58.8442 31.1554 60.9108 35.0178C61.0584 35.2924 61.0353 35.648 61.0885 35.9725C60.5678 36.0437 60.0433 36.1077 59.5226 36.179C58.9094 36.2342 58.5567 35.9939 58.2533 35.412C56.3443 31.791 54.3918 28.193 52.4577 24.5946L52.0616 23.8576L54.2378 22.7065C54.3844 22.9445 54.5566 23.1782 54.6886 23.4239V23.4239Z" fill="#2F61AE"/>
<path d="M140.05 27.9079C139.921 28.4494 139.753 29.1604 139.569 29.9267C139.33 29.0315 139.06 29.7962 138.787 29.9128L136.901 26.406C136.725 26.4249 136.446 26.461 135.836 26.5235C136.164 26.1456 136.415 25.7622 136.478 25.7936C137.203 26.1166 137.909 26.4767 138.584 26.8814C139.105 27.1911 139.573 27.5752 140.031 27.9083L140.05 27.9079Z" fill="white"/>
<path d="M18.639 107.142C17.934 106.976 17.4627 106.863 17.1843 106.796C17.411 106.072 17.5624 105.556 17.7472 105.05C17.8085 104.869 17.974 104.725 18.0949 104.568C18.228 104.712 18.4492 104.846 18.4723 105.01C18.5595 105.623 18.5731 106.238 18.639 107.142V107.142Z" fill="white"/>
<path d="M135.265 22.6654C133.911 23.4841 132.557 24.3028 131.203 25.1215C131.529 24.2324 134.114 22.8183 135.255 22.6987L135.265 22.6654Z" fill="white"/>
<path d="M21.1842 53.9064C21.6879 52.7941 21.8892 52.7342 23.2764 53.2651C22.7105 54.0012 21.9623 53.8947 21.1842 53.9064Z" fill="white"/>
<path d="M30.945 116.222C30.6483 117.215 30.0045 117.146 29.1998 116.865C29.6537 116.216 30.0983 115.758 30.945 116.222Z" fill="white"/>
<path d="M55.9708 65.2632C55.9503 66.3698 55.9336 67.4837 55.9131 68.5903C55.8099 68.5892 55.7139 68.5842 55.6107 68.583C55.6235 67.4619 55.6323 66.3336 55.6523 65.2087C55.7633 65.2243 55.867 65.2438 55.978 65.2594L55.9708 65.2632Z" fill="white"/>
<path d="M21.0286 65.6057C20.6067 65.55 20.1886 65.5016 19.7666 65.4459C19.8492 65.235 19.9378 64.8443 20.0154 64.8498C20.3878 64.848 20.76 64.9673 21.1272 65.0426C21.0882 65.2305 21.0604 65.4217 21.0214 65.6096L21.0286 65.6057Z" fill="white"/>
<path d="M54.9262 36.6677C53.9393 36.8089 53.0958 36.9393 52.244 37.0369C52.1302 37.0507 51.9498 36.9233 51.8619 36.8119C49.6629 34.0571 47.4783 31.2947 45.2137 28.4353C45.9384 27.8757 46.515 27.4223 47.2682 26.8291L48.4769 29.0771C48.4769 29.0771 48.5591 28.9872 48.7157 28.793C50.7557 31.3906 52.7723 33.9448 54.9262 36.6677Z" fill="#2F61AE"/>
<path d="M47.1714 37.7845C46.1224 37.9676 45.2683 38.1313 44.4014 38.2366C44.1737 38.2641 43.8619 38.1875 43.6994 38.0413C42.2638 36.7942 40.8606 35.5207 39.3673 34.1835C39.9352 33.5397 40.464 32.9444 41.043 32.3039C43.0732 34.1189 45.0582 35.902 47.1714 37.7845V37.7845Z" fill="#2F61AE"/>
<path d="M70.9067 69.7281C72.2678 67.9407 72.9392 67.8364 74.4838 69.304C75.4757 70.2467 76.3965 71.2827 77.2592 72.3493C78.271 73.6065 78.1845 74.0701 76.9802 75.1431C76.8366 75.2748 76.6962 75.3954 76.4519 75.6175C74.5944 73.6375 72.7486 71.6791 70.9067 69.7281V69.7281Z" fill="#2F61AE"/>
<path d="M65.005 63.4742C66.5467 61.8142 67.0583 61.7944 68.5154 63.2898C69.1566 63.9444 69.7653 64.6255 70.3271 65.3406C71.2021 66.4474 71.145 66.7747 70.1017 67.6791C69.9289 67.8262 69.7712 67.9838 69.5056 68.2357C67.998 66.6463 66.5204 65.0781 65.005 63.4742V63.4742Z" fill="#2F61AE"/>
<path d="M46.9404 89.4477C45.3793 87.7936 43.86 86.1824 42.2416 84.4565C42.7052 84.035 43.0925 83.5238 43.6087 83.2695C43.9684 83.0886 44.6904 83.0783 44.9365 83.3104C46.1105 84.4355 47.2453 85.6092 48.2504 86.8886C48.9229 87.7402 48.546 88.3574 46.9404 89.4477V89.4477Z" fill="#2F61AE"/>
<path d="M97.0624 43.1116C96.8717 43.2773 96.6621 43.4253 96.3988 43.6295C94.815 41.9503 93.2651 40.2997 91.7191 38.6562C91.8177 38.4927 91.8481 38.3931 91.9163 38.3291C93.6073 36.7387 93.8801 36.743 95.5353 38.4681C96.1542 39.1159 96.7735 39.782 97.313 40.4904C98.2507 41.7311 98.1941 42.0768 97.0624 43.1116V43.1116Z" fill="#2F61AE"/>
<path d="M65.9506 85.2625C62.1305 81.1924 58.3449 77.169 54.5704 73.1489C55.7571 71.5932 56.6577 71.3955 58.002 72.6992C60.206 74.8388 62.2848 77.1096 64.3993 79.3429C65.1887 80.1695 66.0038 80.9918 66.6708 81.9203C67.8059 83.511 67.672 83.9903 65.9506 85.2625V85.2625Z" fill="#2F61AE"/>
<path d="M91.1718 50.7206C89.2426 48.6765 87.2983 46.6218 85.3691 44.5776C86.6697 42.8686 87.3885 42.7486 88.8268 44.1052C89.841 45.0546 90.7981 46.0714 91.6719 47.1415C93.0836 48.8649 93.012 49.1999 91.1718 50.7206Z" fill="#2F61AE"/>
</svg>
