<svg width="182" height="159" viewBox="0 0 182 159" fill="none" xmlns="http://www.w3.org/2000/svg">
<mask id="mask0_167_2550" style="mask-type:alpha" maskUnits="userSpaceOnUse" x="23" y="0" width="159" height="159">
<circle cx="102.24" cy="79.2483" r="78.885" fill="#2F61AE"/>
</mask>
<g mask="url(#mask0_167_2550)">
<rect x="12.9004" y="-29.0997" width="191.035" height="142.563" fill="#2F61AE"/>
</g>
<path d="M47.5708 50.1055C47.5369 55.9963 47.543 61.8841 47.5246 67.775C47.5246 67.9165 47.4414 68.0612 47.3552 68.3351C46.8872 68.3597 46.3853 68.4121 45.8865 68.4059C38.2076 68.3259 30.5255 68.2243 22.8465 68.1628C21.5534 68.1504 20.7528 67.8365 20.4911 66.3653C20.3433 65.5405 19.5335 64.8542 19.1548 64.0447C18.8161 63.3276 18.6961 62.6505 19.746 62.1857C20.719 61.7549 20.953 59.2649 20.0539 57.9938C18.9855 56.4857 19.1825 55.2577 20.1093 53.7773C20.6081 52.9801 20.6912 51.8537 20.7405 50.8657C20.7929 49.7885 21.1377 49.2406 22.2677 49.2468C24.0627 49.253 25.8578 49.2468 27.6497 49.176C29.7835 49.0898 31.9141 48.8159 34.0448 48.819C38.1275 48.8252 42.2133 48.979 46.2961 49.0529C47.035 49.0652 47.5769 49.1329 47.5708 50.1055Z" fill="white"/>
<path d="M69.2186 70.2459C66.0873 70.2366 62.956 70.2797 59.8277 70.2274C57.8295 70.1935 56.136 69.3502 54.849 67.8267C53.6821 66.4479 52.3674 65.5584 50.4646 65.9062C50.1751 65.9585 49.7749 65.9555 49.5686 65.7954C49.1714 65.4876 48.8758 65.0475 48.5371 64.6628C48.9343 64.4166 49.3284 63.9611 49.7348 63.9518C52.1426 63.8841 54.5565 63.918 56.9674 63.918C59.2243 63.9211 61.4842 63.878 63.7411 63.9334C66.7185 64.0042 69.3941 66.0232 70.2994 68.7039C70.6719 69.7996 70.3425 70.2489 69.2186 70.2459Z" fill="white"/>
<path d="M121.076 100.716C121.079 103.606 118.776 105.896 115.888 105.881C113.07 105.865 110.786 103.622 110.733 100.815C110.678 97.9677 112.99 95.6132 115.866 95.5917C118.776 95.5702 121.073 97.8323 121.076 100.716Z" fill="white"/>
<path d="M41.4892 54.0754H1.7642C1.09081 54.0754 0.544922 54.6211 0.544922 55.2942V55.6082C0.544922 56.2813 1.09081 56.827 1.7642 56.827H41.4892C42.1626 56.827 42.7085 56.2813 42.7085 55.6082V55.2942C42.7085 54.6211 42.1626 54.0754 41.4892 54.0754Z" fill="white"/>
<path d="M37.2428 62.2225H9.5474C8.87401 62.2225 8.32812 62.7675 8.32812 63.4398C8.32812 64.1121 8.87401 64.657 9.5474 64.657H37.2428C37.9162 64.657 38.4621 64.1121 38.4621 63.4398C38.4621 62.7675 37.9162 62.2225 37.2428 62.2225Z" fill="white"/>
<path d="M5.40632 62.2225H3.18021C2.50683 62.2225 1.96094 62.7675 1.96094 63.4398C1.96094 64.1121 2.50683 64.657 3.18021 64.657H5.40632C6.07971 64.657 6.6256 64.1121 6.6256 63.4398C6.6256 62.7675 6.07971 62.2225 5.40632 62.2225Z" fill="white"/>
<path d="M41.4891 78.9868H19.6099C18.9365 78.9868 18.3906 79.5325 18.3906 80.2056V80.5195C18.3906 81.1927 18.9365 81.7383 19.6099 81.7383H41.4891C42.1625 81.7383 42.7084 81.1927 42.7084 80.5195V80.2056C42.7084 79.5325 42.1625 78.9868 41.4891 78.9868Z" fill="white"/>
<path d="M37.2428 84.9303H9.5474C8.87401 84.9303 8.32812 85.4753 8.32812 86.1476C8.32812 86.8198 8.87401 87.3648 9.5474 87.3648H37.2428C37.9162 87.3648 38.4621 86.8198 38.4621 86.1476C38.4621 85.4753 37.9162 84.9303 37.2428 84.9303Z" fill="white"/>
<path d="M5.40632 84.9303H3.18021C2.50683 84.9303 1.96094 85.4753 1.96094 86.1476C1.96094 86.8198 2.50683 87.3648 3.18021 87.3648H5.40632C6.07971 87.3648 6.6256 86.8198 6.6256 86.1476C6.6256 85.4753 6.07971 84.9303 5.40632 84.9303Z" fill="white"/>
<path d="M88.2711 49.8991C87.7967 49.8991 87.4121 50.2828 87.4121 50.7562C87.4121 51.2296 87.7967 51.6134 88.2711 51.6134H94.2936C94.7681 51.6134 95.1527 51.2296 95.1527 50.7562C95.1527 50.2828 94.7681 49.8991 94.2936 49.8991H88.2711Z" fill="white"/>
<path d="M91.1774 52.7276C90.703 52.7276 90.3184 53.1113 90.3184 53.5847C90.3184 54.0581 90.703 54.4419 91.1774 54.4419H97.1999C97.6743 54.4419 98.0589 54.0581 98.0589 53.5847C98.0589 53.1113 97.6743 52.7276 97.1999 52.7276H91.1774Z" fill="white"/>
<path d="M126.251 91.763C123.643 88.7006 120.176 87.2725 116.207 86.7862C117.032 86.5185 117.827 86.3646 118.621 86.3461C120.518 86.3061 122.418 86.3554 124.317 86.3246C125.894 86.2969 126.442 85.6105 126.199 84.0747C125.774 81.3878 123.662 79.5658 120.835 79.5258C118.286 79.4889 115.736 79.5166 113.039 79.5166C113.039 78.23 112.962 77.1559 113.061 76.0972C113.184 74.7799 112.639 74.3705 111.392 74.4752C108.953 74.6752 107.161 73.6473 105.88 71.5605C104.834 69.8585 103.639 68.2489 102.543 66.5745C100.985 64.1954 99.8579 61.6594 99.4946 58.7878C99.1467 56.0332 100.061 54.5959 102.749 54.0173C104.011 53.7464 105.012 53.294 104.769 51.6505C104.63 50.6963 104.744 49.7053 104.741 48.7327C104.741 46.4306 104.409 46.3044 102.136 46.0428C98.4077 45.6119 95.806 47.6001 93.2627 49.7792C92.8532 50.13 92.5084 50.8902 92.5761 51.4042C92.9087 53.9803 93.4013 56.5318 93.8077 59.0956C93.9093 59.7357 94.054 60.4252 93.9186 61.0346C93.4413 63.1767 93.7831 65.1434 94.6298 67.1655C95.7536 69.8462 96.9052 72.5731 97.5394 75.3954C99.3961 83.6746 94.0202 90.7504 85.867 90.9535C82.0214 91.049 78.1727 90.9905 74.3239 90.9659C72.3965 90.9535 71.6298 89.9748 71.9962 88.1035C72.4673 85.6906 73.0369 83.293 73.4064 80.8646C74.1854 75.7494 70.429 71.3605 65.2656 71.2866C62.8055 71.2528 60.3423 71.2589 57.8791 71.2897C56.7429 71.3051 55.7484 71.3143 54.9109 70.2155C54.523 69.7077 53.4484 69.5261 52.6848 69.523C42.0162 69.48 31.3444 69.4892 20.6727 69.4953C18.6683 69.4953 17.6122 70.354 17.6152 71.9268C17.6183 73.4964 18.6652 74.3336 20.685 74.3367C27.7143 74.3428 34.7405 74.3367 41.7699 74.3367H43.7435C43.7681 74.4536 43.7897 74.5737 43.8143 74.6906C41.8653 75.6909 39.8609 76.5958 37.9889 77.7222C36.3786 78.6886 34.7313 79.0272 32.8808 79.0303C28.832 79.0333 24.78 79.1565 20.7342 79.3288C20.2324 79.3504 19.7551 79.9659 19.2687 80.3075C19.7613 80.6923 20.2293 81.3663 20.7558 81.4155C23.0989 81.6433 25.4605 81.6741 27.8128 81.8156C28.795 81.8741 29.731 82.1757 29.7126 83.3761C29.6972 84.5764 28.7796 84.8472 27.7759 84.8688C25.8762 84.9057 23.9795 84.9119 22.0828 84.9611C21.4701 84.9796 20.8174 84.9765 20.2693 85.1981C19.8783 85.3551 19.3887 85.8721 19.3887 86.2292C19.3887 86.5862 19.8937 87.1002 20.2847 87.2325C20.9467 87.4603 21.6918 87.4664 22.4061 87.5218C25.0079 87.7311 26.0948 89.2331 25.5005 91.8061C25.1434 93.3542 25.2573 94.8685 26.6182 95.8472C27.5881 96.5397 27.662 97.2291 27.468 98.2848C26.1163 105.607 30.7502 112.523 38.0104 114.101C45.1567 115.659 52.3 111.285 54.1474 104.2C54.4029 103.222 54.523 102.206 54.6985 101.239C54.8524 101.181 54.9448 101.116 55.0372 101.119C65.4503 101.147 75.8603 101.181 86.2735 101.206C86.7815 101.209 87.4404 101.298 87.7729 101.03C89.842 99.3497 92.2621 99.916 94.5775 99.8637C97.0714 99.8083 99.5685 99.8514 102.192 99.8514C102.167 103.994 103.343 107.518 106.176 110.347C109.006 113.175 112.448 114.511 116.457 114.394C123.07 114.203 128.573 109.18 129.472 102.467C130.013 98.4202 128.871 94.8438 126.251 91.763ZM49.9969 102.32C49.2795 107.567 44.0822 110.925 38.8294 109.786C33.823 108.697 30.6301 103.48 31.8648 98.4818C32.1634 97.2753 32.6591 96.5735 34.0601 96.7644C34.9961 96.8906 35.9629 96.789 36.9882 96.789C35.3255 101.233 35.5842 103.286 37.9057 104.939C39.7808 106.275 42.4164 106.173 44.2022 104.702C46.3391 102.941 46.53 100.784 44.8119 96.949C49.8029 96.7551 50.6589 97.4938 49.9969 102.32ZM115.909 110.039C110.865 110.017 106.61 105.844 106.656 100.882C106.659 100.304 107.057 99.7159 107.309 99.1496C107.768 98.1124 108.248 97.0845 108.728 96.0596C109.101 95.2716 109.292 94.2652 109.898 93.742C112.851 91.1875 116.266 90.7289 119.782 92.3231C123.317 93.9267 125.066 96.8536 125.173 99.8606C125.179 105.878 121.011 110.06 115.909 110.039Z" fill="white"/>
<rect x="25.2559" y="113.463" width="155.869" height="3.80169" rx="1.90084" fill="#11448A"/>
</svg>
