<svg width="19" height="18" viewBox="0 0 19 18" fill="none" xmlns="http://www.w3.org/2000/svg">
<path d="M10.413 17.8919C9.04982 17.8919 7.83811 17.8919 6.53174 17.8919C6.53174 13.935 6.53174 9.99691 6.53174 5.96419C7.78131 5.96419 9.03089 5.96419 10.3373 5.96419C10.3751 6.38072 10.413 6.79724 10.4698 7.30843C10.6591 7.1759 10.8484 7.10017 10.962 6.96764C12.2874 5.52874 13.9156 5.24474 15.6953 5.81273C17.475 6.38072 18.4595 7.76282 18.5542 9.50465C18.7245 12.2689 18.592 15.0331 18.592 17.873C17.3235 17.873 16.0739 17.873 14.6729 17.873C14.6729 16.188 14.6729 14.5219 14.6729 12.8368C14.6729 12.0985 14.6918 11.3601 14.6161 10.6217C14.5025 9.44785 13.7831 8.74734 12.7607 8.69054C11.7004 8.63374 10.7538 9.29639 10.5266 10.3945C10.3751 11.1708 10.3941 12.0038 10.3941 12.799C10.413 14.4651 10.413 16.1122 10.413 17.8919Z" fill="white"/>
<path d="M4.12756 17.9104C2.82119 17.9104 1.59055 17.9104 0.28418 17.9104C0.28418 13.9156 0.28418 9.97754 0.28418 5.94482C1.55269 5.94482 2.80226 5.94482 4.12756 5.94482C4.12756 9.90181 4.12756 13.8588 4.12756 17.9104Z" fill="white"/>
<path d="M4.43031 2.06369C4.44924 3.25646 3.55939 4.08951 2.25302 4.12738C0.927713 4.16525 0.0189329 3.31326 0 2.04476C0 0.814116 0.851981 0 2.15835 0C3.54046 0 4.43031 0.795183 4.43031 2.06369Z" fill="white"/>
</svg>
