<svg width="157" height="125" viewBox="0 0 157 125" fill="none" xmlns="http://www.w3.org/2000/svg">
<rect x="0.650391" y="120.414" width="155.869" height="3.80168" rx="1.90084" fill="#11448A"/>
<mask id="mask0_167_2555" style="mask-type:alpha" maskUnits="userSpaceOnUse" x="17" y="0" width="123" height="77">
<rect x="18.2578" y="1.16113" width="120.654" height="75.2607" stroke="#D9D9D9"/>
</mask>
<g mask="url(#mask0_167_2555)">
</g>
<g clip-path="url(#clip0_167_2555)">
<path d="M105.442 40.4104L105.443 40.4071C105.479 40.0373 105.799 39.7276 106.219 39.7276L119.991 39.7276C120.419 39.7276 120.779 40.0771 120.779 40.5267L120.779 216.459C120.779 216.909 120.419 217.258 119.991 217.258L106.219 217.258C105.803 217.258 105.479 216.945 105.443 216.578L105.442 216.575C104.101 203.141 92.8085 192.647 79.0592 192.647C65.3092 192.647 54.0239 203.142 52.683 216.575L52.6827 216.579C52.6464 216.948 52.3262 217.258 51.9062 217.258L38.1276 217.258C37.6996 217.258 37.3398 216.909 37.3398 216.459L37.3398 40.5267C37.3398 40.0771 37.6996 39.7276 38.1276 39.7276L51.9062 39.7276C52.3221 39.7276 52.6465 40.0405 52.6827 40.408L52.683 40.4104C54.0239 53.8436 65.3157 64.3459 79.0592 64.3459C92.8093 64.3459 104.102 53.844 105.442 40.4104Z" fill="#2F61AE" stroke="#234275" stroke-width="4" stroke-linejoin="round"/>
<path d="M56.6696 132.975C56.0328 132.975 55.662 132.731 55.55 132.23C55.438 131.735 55.585 131.282 55.9908 130.878L98.8805 86.8794C99.2864 86.4752 99.6642 86.1546 100 85.9315C100.343 85.7085 100.805 85.59 101.393 85.59L103.093 85.59C103.73 85.59 104.101 85.8409 104.213 86.3358C104.325 86.8306 104.178 87.2836 103.772 87.6878L60.8823 131.686C60.4764 132.09 60.1126 132.411 59.7977 132.634C59.4828 132.864 59.0069 132.975 58.3701 132.975H56.6696ZM67.4743 109.621C65.6129 109.621 64.0453 109.237 62.7507 108.471C61.4561 107.704 60.5324 106.631 59.9656 105.258C59.3988 103.885 59.2518 102.289 59.5247 100.484C59.7067 99.3129 59.8886 98.3302 60.0706 97.5357C60.2525 96.7481 60.4974 95.7167 60.8193 94.4552C61.5471 91.7441 62.8347 89.5347 64.6961 87.8203C66.5506 86.1058 68.9578 85.2485 71.9039 85.2485C73.8983 85.2485 75.5288 85.6458 76.7954 86.4333C78.062 87.2209 78.9717 88.3081 79.5175 89.6811C80.0634 91.0611 80.1753 92.6501 79.8604 94.4552C79.6785 95.7167 79.4965 96.7481 79.3146 97.5357C79.1326 98.3232 78.8807 99.3059 78.5658 100.484C77.838 103.195 76.5504 105.39 74.689 107.084C72.8276 108.777 70.4273 109.621 67.4813 109.621H67.4743ZM67.4743 105.829C69.5106 105.829 71.1341 105.223 72.3378 104.003C73.5344 102.784 74.3181 101.543 74.682 100.282C75.0459 99.0202 75.2838 98.0584 75.3958 97.4033C75.5078 96.7481 75.6547 95.8351 75.8367 94.6643C76.0186 93.7652 76.0536 92.8801 75.9416 92.0228C75.8297 91.1656 75.4658 90.4547 74.857 89.8902C74.2482 89.3257 73.2615 89.0469 71.8969 89.0469C69.7206 89.0469 68.0691 89.6463 66.9354 90.838C65.8018 92.0368 65.053 93.3122 64.6891 94.6643C64.3742 95.8351 64.1573 96.7551 64.0453 97.4033C63.9334 98.0584 63.7584 99.0202 63.5345 100.282C63.4435 101.139 63.4645 101.996 63.6045 102.853C63.7374 103.711 64.1153 104.422 64.7241 104.986C65.3329 105.551 66.2567 105.829 67.4743 105.829ZM87.7959 133.38C85.9345 133.38 84.36 132.996 83.0724 132.23C81.7778 131.463 80.8541 130.39 80.2873 129.017C79.7205 127.644 79.5735 126.048 79.8464 124.243C80.0284 123.072 80.2103 122.089 80.3922 121.295C80.5742 120.507 80.8191 119.476 81.141 118.214C81.8688 115.503 83.1564 113.294 85.0178 111.579C86.8722 109.865 89.2795 109.007 92.2256 109.007C94.2199 109.007 95.8504 109.405 97.117 110.192C98.3837 110.98 99.2934 112.067 99.8392 113.44C100.385 114.82 100.497 116.409 100.182 118.214C100 119.476 99.8182 120.507 99.6363 121.295C99.4543 122.082 99.2024 123.065 98.8875 124.243C98.1597 126.954 96.8721 129.149 95.0107 130.843C93.1493 132.536 90.749 133.38 87.8029 133.38H87.7959ZM87.7959 129.588C89.8323 129.588 91.4558 128.982 92.6524 127.762C93.8491 126.543 94.6328 125.302 94.9967 124.041C95.3606 122.779 95.5985 121.817 95.7105 121.162C95.8224 120.507 95.9694 119.594 96.1513 118.423C96.3333 117.524 96.3543 116.639 96.2213 115.782C96.0884 114.924 95.7245 114.214 95.1367 113.649C94.5488 113.085 93.5761 112.806 92.2116 112.806C90.0352 112.806 88.3838 113.405 87.2501 114.597C86.1165 115.796 85.3677 117.064 85.0038 118.423C84.6889 119.594 84.472 120.514 84.36 121.162C84.248 121.817 84.0731 122.779 83.8492 124.041C83.7582 124.898 83.7792 125.755 83.9192 126.612C84.0521 127.469 84.43 128.18 85.0388 128.745C85.6476 129.309 86.5713 129.588 87.7889 129.588H87.7959Z" fill="white"/>
</g>
<defs>
<clipPath id="clip0_167_2555">
<rect width="113.795" height="87.4388" fill="white" transform="translate(35.3398 120.414) rotate(-90)"/>
</clipPath>
</defs>
</svg>
