<svg width="156" height="150" viewBox="0 0 156 150" fill="none" xmlns="http://www.w3.org/2000/svg">
<rect x="0.125" y="145.414" width="155.869" height="3.80168" rx="1.90084" fill="#11448A"/>
<mask id="mask0_167_2551" style="mask-type:alpha" maskUnits="userSpaceOnUse" x="54" y="84" width="65" height="71">
<rect x="54.125" y="84" width="64" height="71" fill="#D9D9D9"/>
</mask>
<g mask="url(#mask0_167_2551)">
</g>
<mask id="mask1_167_2551" style="mask-type:alpha" maskUnits="userSpaceOnUse" x="16" y="0" width="124" height="147">
<rect x="16.2031" width="123.713" height="146.365" fill="#D9D9D9"/>
</mask>
<g mask="url(#mask1_167_2551)">
<rect x="47.0918" y="57.9464" width="69.0343" height="104.932" fill="white"/>
<path d="M110.245 35.1656H53.4724C46.7629 35.1656 41.4297 40.7981 41.4297 47.4866V175.801C41.4297 182.665 46.9349 188.122 53.4724 188.122H110.245C116.954 188.122 122.288 182.489 122.288 175.801V47.6626C122.288 40.7981 116.954 35.1656 110.245 35.1656ZM68.6117 45.0256H95.2776C96.4819 45.0256 97.3421 45.9057 97.3421 47.1378C97.3421 48.3699 96.4819 49.2499 95.2776 49.2499H68.6117C67.4074 49.2499 66.5473 48.3699 66.5473 47.1378C66.5473 45.9057 67.4074 45.0256 68.6117 45.0256ZM81.8587 183.021C77.9018 183.021 74.633 179.676 74.633 175.628C74.633 171.58 77.9018 168.235 81.8587 168.235C85.8155 168.235 89.0843 171.58 89.0843 175.628C89.0843 179.676 85.8155 183.021 81.8587 183.021ZM116.438 159.955C116.438 161.612 115.095 162.955 113.438 162.955H50.107C48.4501 162.955 47.1069 161.612 47.1069 159.955V60.8746C47.1069 59.2178 48.4501 57.8746 50.1069 57.8746H113.438C115.095 57.8746 116.438 59.2178 116.438 60.8746V159.955Z" fill="#2F61AE" stroke="#3161AD" stroke-miterlimit="10"/>
<path d="M61.9539 69.1212V71.944C61.9539 72.1061 61.8208 72.2276 61.6744 72.2276C61.5148 72.2276 61.395 72.0926 61.395 71.944V69.4453C61.395 69.2562 61.3019 69.0807 61.1289 68.9726L60.5701 68.635L59.0932 67.73C58.9601 67.649 58.9069 67.4734 58.9867 67.3248C59.0666 67.1898 59.2528 67.1357 59.3859 67.2168L61.1289 68.2703L61.395 68.4324L61.6878 68.6079C61.7277 68.635 61.7543 68.662 61.7543 68.7025C61.7809 68.8105 61.8341 68.9186 61.9139 68.9861C61.9406 69.0401 61.9539 69.0807 61.9539 69.1212Z" fill="#2F60AD"/>
<path d="M64.9476 66.3126C65.0275 66.4477 64.9743 66.6233 64.8412 66.7043L63.1115 67.7578L62.8055 67.9469L62.5393 68.109C62.4994 68.136 62.4462 68.136 62.393 68.1225C62.3531 68.109 62.2998 68.109 62.2599 68.109C62.2067 68.109 62.1668 68.1225 62.1136 68.136C62.0603 68.1495 62.0071 68.1495 61.9672 68.1225H61.9539L61.6878 67.9604L61.3951 67.7848L59.6654 66.7178C59.5323 66.6368 59.4924 66.4612 59.5722 66.3261C59.652 66.1911 59.825 66.137 59.9581 66.2181L61.3818 67.0825L61.9539 67.4336C62.1269 67.5417 62.3398 67.5417 62.5127 67.4336L62.526 67.4201L63.0982 67.069L64.5352 66.1911C64.6815 66.1235 64.8678 66.1776 64.9476 66.3126Z" fill="#2F60AD"/>
<path d="M65.4922 67.3379C65.572 67.473 65.5188 67.6486 65.3857 67.7296L63.9088 68.6345L63.35 68.9722C63.1903 69.0667 63.0972 69.2423 63.0972 69.4179V71.9301C63.0972 72.0921 62.9641 72.2272 62.8044 72.2272C62.6448 72.2272 62.5117 72.0921 62.5117 71.9301V69.1072C62.5117 69.0802 62.525 69.0532 62.5516 69.0397C62.6581 68.9587 62.7246 68.8371 62.7379 68.6885C62.7379 68.6615 62.7512 68.6345 62.7778 68.621L63.0839 68.4319L63.3234 68.2834L65.0664 67.2164C65.2261 67.1353 65.4123 67.1893 65.4922 67.3379Z" fill="#2F60AD"/>
<path d="M82.3658 69.8779H83.723L83.2706 68.4462C83.244 68.3517 83.2041 68.2436 83.1641 68.1221C83.1242 68.0005 83.0843 67.8655 83.0444 67.7169C83.0045 67.8655 82.9646 68.0005 82.9379 68.1221C82.898 68.2436 82.8581 68.3517 82.8315 68.4462L82.3658 69.8779ZM85.5591 71.8904H84.6677C84.5612 71.8904 84.4814 71.8633 84.4149 71.8228C84.3483 71.7688 84.3084 71.7148 84.2818 71.6337L83.9891 70.7153H82.0997L81.807 71.6337C81.7804 71.7013 81.7404 71.7553 81.6739 71.8228C81.6074 71.8769 81.5276 71.9039 81.4344 71.9039H80.5296L82.4456 66.6634H83.6298L85.5591 71.8904ZM76.3916 66.6499C76.4448 66.6499 76.4848 66.6499 76.5114 66.6634C76.5513 66.6634 76.5779 66.6769 76.6045 66.6904C76.6311 66.7039 76.6577 66.7174 76.6843 66.7444C76.711 66.7715 76.7376 66.7985 76.7642 66.839L79.1193 69.986C79.106 69.8914 79.106 69.7834 79.0926 69.6888C79.0926 69.5943 79.0793 69.4997 79.0793 69.4187V66.6499H80.0906V71.8904H79.4918C79.3987 71.8904 79.3321 71.8768 79.2656 71.8498C79.1991 71.8228 79.1459 71.7688 79.0926 71.6878L76.7775 68.5678C76.7908 68.6623 76.7908 68.7434 76.7908 68.8379C76.7908 68.919 76.8041 69 76.8041 69.081V71.8904H75.7929V66.6499H76.3916ZM72.5862 69.2161H73.185C73.491 69.2161 73.7039 69.1351 73.837 68.9865C73.97 68.8379 74.0365 68.6218 74.0365 68.3517C74.0365 68.2301 74.0232 68.1221 73.9833 68.0275C73.9434 67.933 73.9035 67.852 73.8237 67.7709C73.7571 67.7034 73.664 67.6494 73.5575 67.6089C73.4511 67.5683 73.3313 67.5548 73.185 67.5548H72.5862V69.2161ZM72.5862 70.1345V71.8904H71.4287V66.6499H73.185C73.5309 66.6499 73.837 66.6904 74.0898 66.785C74.3426 66.866 74.5422 66.9876 74.7151 67.1496C74.8748 67.2982 74.9945 67.4873 75.0744 67.6899C75.1542 67.8925 75.1941 68.1221 75.1941 68.3652C75.1941 68.6218 75.1542 68.8649 75.0744 69.081C74.9945 69.2971 74.8748 69.4862 74.7151 69.6483C74.5555 69.8104 74.3426 69.9319 74.0898 70.013C73.837 70.094 73.5442 70.148 73.1983 70.148H72.5862V70.1345ZM67.8362 69.8779H69.1933L68.7409 68.4462C68.7143 68.3517 68.6744 68.2436 68.6345 68.1221C68.5946 68.0005 68.5547 67.8655 68.5147 67.7169C68.4748 67.8655 68.4349 68.0005 68.4083 68.1221C68.3684 68.2436 68.3285 68.3517 68.3019 68.4462L67.8362 69.8779ZM71.0295 71.8904H70.138C70.0316 71.8904 69.9517 71.8633 69.8852 71.8228C69.8187 71.7688 69.7788 71.7148 69.7522 71.6337L69.4594 70.7153H67.5701L67.2773 71.6337C67.2507 71.7013 67.2108 71.7553 67.1443 71.8228C67.0777 71.8769 66.9979 71.9039 66.9048 71.9039H66L67.9293 66.6499H69.1135L71.0295 71.8904Z" fill="#2F60AD"/>
<path d="M104.094 66.7988V67.1095H102.404V71.8772H102.058V67.1095H100.355V66.7988H104.094ZM97.2412 69.311H98.0795C98.2924 69.311 98.4786 69.284 98.6516 69.23C98.8246 69.1759 98.9709 69.0949 99.0774 69.0004C99.1971 68.9058 99.2903 68.7843 99.3435 68.6357C99.41 68.5006 99.4366 68.3386 99.4366 68.163C99.4366 67.7983 99.3302 67.5282 99.104 67.3526C98.8778 67.177 98.5585 67.096 98.1194 67.096H97.2412V69.311ZM97.2412 69.5811V71.8772H96.8953V66.7988H98.1194C98.6782 66.7988 99.0907 66.9069 99.3701 67.1365C99.6495 67.3661 99.7826 67.6902 99.7826 68.136C99.7826 68.325 99.756 68.5006 99.6894 68.6627C99.6229 68.8248 99.5298 68.9598 99.41 69.0814C99.2903 69.203 99.1439 69.2975 98.9843 69.3785C98.8113 69.4596 98.625 69.5001 98.4121 69.5271C98.4653 69.5676 98.5186 69.6081 98.5585 69.6757L100.222 71.8772H99.9156C99.8757 71.8772 99.8491 71.8637 99.8225 71.8502C99.7959 71.8367 99.7693 71.8097 99.7427 71.7827L98.1992 69.7162C98.1593 69.6622 98.1194 69.6217 98.0795 69.6081C98.0396 69.5811 97.973 69.5811 97.8799 69.5811H97.2412ZM92.8105 70.0403H94.966L93.9814 67.4741C93.9681 67.4336 93.9548 67.3931 93.9281 67.3391C93.9148 67.2851 93.9015 67.231 93.8749 67.177C93.8616 67.231 93.8483 67.2851 93.8217 67.3391C93.8084 67.3931 93.7951 67.4336 93.7685 67.4741L92.8105 70.0403ZM96.0304 71.8907H95.7643C95.7377 71.8907 95.7111 71.8772 95.6845 71.8637C95.6579 71.8502 95.6446 71.8232 95.6313 71.7962L95.0591 70.324H92.6907L92.1186 71.7962C92.1053 71.8232 92.092 71.8502 92.0654 71.8637C92.0388 71.8772 92.0122 71.8907 91.9855 71.8907H91.7194L93.6886 66.7988H94.0346L96.0304 71.8907ZM88.5261 70.405C88.566 70.4726 88.5926 70.5401 88.6192 70.6211C88.6325 70.5806 88.6459 70.5401 88.6592 70.5131C88.6725 70.4726 88.6858 70.4455 88.7124 70.405L90.6018 66.8664C90.6151 66.8393 90.6417 66.8123 90.655 66.8123C90.6683 66.7988 90.6949 66.7988 90.7348 66.7988H90.9743V71.8907H90.6683V67.5552C90.6683 67.4877 90.6683 67.4336 90.6816 67.3526L88.7789 70.9048C88.7523 70.9723 88.6991 70.9993 88.6459 70.9993H88.5926C88.5394 70.9993 88.4862 70.9723 88.4596 70.9048L86.5037 67.3526C86.517 67.4201 86.517 67.4877 86.517 67.5552V71.8907H86.2109V66.7988H86.4504C86.477 66.7988 86.5037 66.7988 86.5303 66.8123C86.5569 66.8258 86.5702 66.8393 86.5835 66.8664L88.5261 70.405Z" fill="#2F60AD"/>
<rect x="52.8828" y="81.6593" width="12.8025" height="12.8025" rx="2" fill="#E0E7F3"/>
<rect x="110.83" y="83.682" width="8.08579" height="2.69526" rx="1" transform="rotate(90 110.83 83.682)" fill="#E0E7F3"/>
<rect x="104.092" y="89.7465" width="5.39053" height="4.04289" rx="1" transform="rotate(-180 104.092 89.7465)" fill="#E0E7F3"/>
<rect x="69.0547" y="83.682" width="24.9312" height="2.69527" rx="1" fill="#E0E7F3"/>
<rect x="69.0547" y="89.0718" width="24.9312" height="2.69526" rx="1" fill="#E0E7F3"/>
<rect x="52.8828" y="145.415" width="12.8025" height="12.8025" rx="2" fill="#E0E7F3"/>
<rect x="52.8828" y="97.1575" width="12.8025" height="12.8025" rx="2" fill="#E0E7F3"/>
<rect x="110.83" y="99.1802" width="8.08579" height="2.69526" rx="1" transform="rotate(90 110.83 99.1802)" fill="#E0E7F3"/>
<rect x="104.092" y="105.245" width="5.39053" height="4.0429" rx="1" transform="rotate(-180 104.092 105.245)" fill="#E0E7F3"/>
<rect x="69.0547" y="99.1802" width="24.9312" height="2.69526" rx="1" fill="#E0E7F3"/>
<rect x="69.0547" y="104.57" width="24.9312" height="2.69527" rx="1" fill="#E0E7F3"/>
<rect x="52.8828" y="112.654" width="12.8025" height="12.8025" rx="2" fill="#E0E7F3"/>
<rect x="110.83" y="114.676" width="8.0858" height="2.69526" rx="1" transform="rotate(90 110.83 114.676)" fill="#E0E7F3"/>
<rect x="104.092" y="120.74" width="5.39053" height="4.04289" rx="1" transform="rotate(-180 104.092 120.74)" fill="#E0E7F3"/>
<rect x="69.0547" y="114.677" width="24.9312" height="2.69527" rx="1" fill="#E0E7F3"/>
<rect x="69.0547" y="120.066" width="24.9312" height="2.69526" rx="1" fill="#E0E7F3"/>
<rect x="52.8828" y="128.152" width="12.8025" height="12.8025" rx="2" fill="#E0E7F3"/>
<rect x="110.83" y="130.174" width="8.0858" height="2.69527" rx="1" transform="rotate(90 110.83 130.174)" fill="#E0E7F3"/>
<rect x="104.092" y="136.238" width="5.39053" height="4.04289" rx="1" transform="rotate(-180 104.092 136.238)" fill="#E0E7F3"/>
<rect x="69.0547" y="130.175" width="24.9312" height="2.69527" rx="1" fill="#E0E7F3"/>
<rect x="69.0547" y="135.564" width="24.9312" height="2.69527" rx="1" fill="#E0E7F3"/>
</g>
</svg>
