<svg width="26" height="19" viewBox="0 0 26 19" fill="none" xmlns="http://www.w3.org/2000/svg">
<path d="M12.9552 18.1381C9.75517 17.9829 6.63274 17.8859 3.5297 17.6726C1.57091 17.5368 0.48485 16.6447 0.29091 14.6665C0.0193944 11.738 0 8.79016 0 5.84227C0 4.73681 0.213334 3.63136 0.48485 2.54529C0.833941 1.14893 1.82303 0.276198 3.27758 0.23741C8.33941 0.121046 13.4012 0.0628644 18.4631 0.00468242C19.6267 -0.0147116 20.7903 0.0240763 21.9346 0.159834C24.1067 0.411956 25.1346 1.2459 25.3479 3.37924C25.6194 6.15258 25.6388 8.9647 25.6388 11.7768C25.6388 12.9405 25.4255 14.1429 25.1346 15.2871C24.7661 16.7611 23.7382 17.6144 22.1867 17.692C19.0643 17.8471 15.9612 17.9829 12.9552 18.1381ZM10.2206 5.06651C10.2206 7.56834 10.2206 9.85683 10.2206 12.3199C12.5673 11.098 14.7588 9.95379 17.1831 8.69319C14.7394 7.41318 12.5479 6.26894 10.2206 5.06651Z" fill="white"/>
</svg>
